<svg xmlns="http://www.w3.org/2000/svg" width="960" height="600" viewBox="0 0 960 600">
  <defs>
    <radialGradient id="rg" cx="30%" cy="20%" r="80%">
      <stop offset="0" stop-color="#2a3a63" stop-opacity="0.85"/>
      <stop offset="1" stop-color="#0b1220" stop-opacity="1"/>
    </radialGradient>
    <linearGradient id="lg" x1="0" y1="0" x2="1" y2="1">
      <stop offset="0" stop-color="#7aa8ff" stop-opacity="0.22"/>
      <stop offset="1" stop-color="#ffffff" stop-opacity="0.02"/>
    </linearGradient>
    <filter id="blur" x="-20%" y="-20%" width="140%" height="140%">
      <feGaussianBlur stdDeviation="18"/>
    </filter>
  </defs>
  <rect width="960" height="600" fill="url(#rg)"/>
  <circle cx="260" cy="170" r="150" fill="url(#lg)" filter="url(#blur)"/>
  <circle cx="760" cy="140" r="170" fill="url(#lg)" filter="url(#blur)"/>
  <circle cx="700" cy="460" r="220" fill="url(#lg)" filter="url(#blur)"/>
  <g opacity="0.35" stroke="#a9c3ff" stroke-width="2">
    <path d="M120 430c140-120 260-160 420-40 150 110 250 90 340-40" fill="none"/>
    <path d="M140 460c120-90 240-120 370-20 170 130 280 110 360-30" fill="none"/>
  </g>
  <g opacity="0.22" fill="#ffffff">
    <rect x="130" y="120" width="90" height="8" rx="4"/>
    <rect x="130" y="140" width="160" height="8" rx="4"/>
    <rect x="130" y="160" width="120" height="8" rx="4"/>
  </g>
</svg>
